<svg id="Layer_1" data-name="Layer 1" xmlns="http://www.w3.org/2000/svg" viewBox="0 0 1920 160"><title>Artboard 1btn</title><path d="M1920,8.39V98H0V1C344.14,48.91,620.83,51.86,813,45.18,1060.21,36.6,1340.77,6,1830,7.73,1865.23,7.85,1895.88,8.13,1920,8.39Z" fill="#fee7dd"/><path d="M1920,37.69V131H0V30C344.14,79.88,620.83,83,813,76c247.21-8.94,527.77-40.76,1017-39C1865.23,37.12,1895.88,37.41,1920,37.69Z" fill="#fcb9b2"/><path d="M1920.5,67.19V160.5H.5v-101c344.14,49.89,620.83,53,813,46,247.21-8.94,527.77-40.76,1017-39C1865.73,66.62,1896.38,66.91,1920.5,67.19Z" fill="#d94443"/></svg>