<svg id="Layer_1" data-name="Layer 1" xmlns="http://www.w3.org/2000/svg" viewBox="0 0 1920 220"><title>Artboard 1btn</title><path d="M1920,71.9V172.39l-979.65-8.55h0L269.14,158h0L0,155.65V0H22.45C461.7,142.68,772.66,122.58,982.13,71.84c73-17.69,193.74-53.64,369-64.43C1586.3-7.06,1782.92,32.2,1920,71.9Z" fill="#fee7dd"/><path d="M1920,110.5V207H0V50.16C451.79,191.34,769.19,169.49,981.53,118c72.83-17.65,193.15-53.3,368.18-65.16C1585.31,36.89,1782.6,73.31,1920,110.5Z" fill="#fcb9b2"/><path d="M1920,151.48V220H0V109.35c95.64,21.07,185.24,37,269.12,48.64h0c287.35,40,507.36,30,671.18,5.85h0q21.63-3.18,42-6.67c72.92-12.47,193.4-37.64,368.66-46A2427.46,2427.46,0,0,1,1920,151.48Z" fill="#d94443"/></svg>