<svg id="Layer_1" data-name="Layer 1" xmlns="http://www.w3.org/2000/svg" viewBox="0 0 1920 160"><title>Artboard 1btn</title><path d="M1920,53.14V129H0V79.73C488,53.58,813.82,70.22,1029,93c35.82,3.79,97.15,10.78,184,15A2815.62,2815.62,0,0,0,1920,53.14Z" fill="#ffcf99" opacity="0.5"/><path d="M1920,67.14V143H0V93.73C488,67.58,813.82,84.22,1029,107c35.82,3.79,97.15,10.78,184,15A2815.62,2815.62,0,0,0,1920,67.14Z" fill="#ffc07f" opacity="0.5"/><path d="M1919.5,83.64V159.5H-.5V110.23c488-26.15,813.82-9.51,1029,13.27,35.82,3.79,97.15,10.78,184,15A2815.62,2815.62,0,0,0,1919.5,83.64Z" fill="#d94443"/></svg>