<svg id="Layer_1" data-name="Layer 1" xmlns="http://www.w3.org/2000/svg" viewBox="0 0 163.38 137.27"><title>Artboard ۲frame</title><path d="M27.69,35.7A14.83,14.83,0,1,1,48.41,14.47" fill="#f89ea9"/><path d="M118.59,40.33l10.25-7.9L149.78,16.3a1.38,1.38,0,0,0-.85-2.48,1.37,1.37,0,0,0-.84.28L127.18,30.21,116.94,38.1Z" fill="#80e0c5"/><path d="M114,34.65l10.29-7.92L149.78,7.05a1.38,1.38,0,0,0-1.69-2.19L122.32,24.72l-10.35,8Z" fill="#80e0c5"/><path d="M139.31,4.23,124.37,15.74h0L113.78,23.9c-.79-.57-1.59-1.12-2.4-1.64L122.11,14,137.62,2a1.38,1.38,0,0,1,.84-.29,1.42,1.42,0,0,1,1.1.54A1.39,1.39,0,0,1,139.31,4.23Z" fill="#80e0c5"/><path d="M99.08,24l11.25-8.67,8-6.16a1.38,1.38,0,0,0-.85-2.48,1.4,1.4,0,0,0-.84.29l-8.93,6.88L96.14,22.8Z" fill="#80e0c5"/><path d="M61.35,104.23l-10,8.27L26.49,133.05a1.39,1.39,0,0,0-.18,1.94,1.42,1.42,0,0,0,1.12.5,1.47,1.47,0,0,0,.83-.31l25.07-20.74,10.07-8.32Z" fill="#80e0c5"/><path d="M61.35,94.25l-10,8.27L26.49,123.06a1.4,1.4,0,0,0-.18,2,1.38,1.38,0,0,0,1.12.49,1.4,1.4,0,0,0,.83-.31l25.07-20.73L63.4,96.14Z" fill="#80e0c5"/><path d="M47.22,97.05l-10,8.27L12.36,125.86a1.4,1.4,0,0,0-.18,2,1.38,1.38,0,0,0,1.12.49,1.45,1.45,0,0,0,.83-.3L39.2,107.26l10.07-8.32Z" fill="#80e0c5"/><path d="M37.18,95.9l-10,8.27L2.32,124.71a1.4,1.4,0,0,0-.18,2,1.41,1.41,0,0,0,1.95.18l25.07-20.73,10.07-8.32Z" fill="#80e0c5"/><path d="M136.75,47.63l-.12-.32a61,61,0,0,0-7.79-14.88c-.54-.75-1.09-1.49-1.66-2.22q-1.41-1.8-2.94-3.48-.94-1-1.92-2c-1.4-1.4-2.87-2.73-4.39-4h0c-.74-.6-1.48-1.19-2.25-1.75a58.67,58.67,0,0,0-5.34-3.6c-.86-.51-1.73-1-2.62-1.47a61.19,61.19,0,1,0,29,33.74ZM107.34,28.87c-.79-.57-1.59-1.12-2.4-1.64Z" fill="#f3dd9c"/><polygon points="136.41 47.56 153.42 28.86 161.1 52.95 136.41 47.56" fill="#fab0b9"/><circle cx="78.93" cy="68.01" r="55.81" fill="#f3dd9c" stroke="#fff" stroke-miterlimit="10" stroke-width="2"/></svg>