<svg xmlns="http://www.w3.org/2000/svg" viewBox="0 0 850.39 1133.86"><title>Artboard 1side1</title><g id="Layer_2" data-name="Layer 2"><path d="M505.77,576.87c-61.33-78-181.81-123.81-254-191.24C164.13,303.76,177,188.37,190.64,131.38a43.8,43.8,0,0,0,1.12-7.37c59.92,6.8,171.39,41.41,280.65,191.78C527.61,391.76,528.43,486,505.77,576.87Z" fill="#ec6180"/></g><g id="Layer_1" data-name="Layer 1"><path d="M516.86,793.57C430.92,981.41,131.34,1092.33,0,1133V0L28,15.79C44.93,24,132.73,92,191.76,124c2.16,1.17-.53,4.91-1.12,7.37-13.61,57-26.51,172.38,61.14,254.25,72.18,67.43,192.66,113.27,254,191.24C547,629.2,561.49,696,516.86,793.57Z" fill="#f8b961"/><ellipse cx="653.37" cy="185.63" rx="52.38" ry="80.95" transform="translate(-5.28 351.55) rotate(-30)" fill="#1c9aaa" opacity="0.5"/><ellipse cx="463.34" cy="1023.56" rx="77.28" ry="47.44" transform="translate(-654.76 913.05) rotate(-60)" fill="#f3752a" opacity="0.5"/></g></svg>