<svg id="Layer_1" data-name="Layer 1" xmlns="http://www.w3.org/2000/svg" viewBox="0 0 290.69 519.79"><title>Artboard ۲side</title><path d="M267.43,158.23a7.18,7.18,0,0,0,4.08-3.63,15.52,15.52,0,0,1,2.54-4.15c1.18-1.13,3.17-1.64,4.42-.59a3.43,3.43,0,0,1,1.07,2.57,23.12,23.12,0,0,1-.23,2.87,13,13,0,0,0,6.76,12,8,8,0,0,1,3.17,2.23,3.23,3.23,0,0,1-1.52,4.6,8,8,0,0,1-3.61,0,12.79,12.79,0,0,0-12.5,6.43,8.87,8.87,0,0,1-2,3.19,3.29,3.29,0,0,1-4.75-1.13,7.26,7.26,0,0,1-.27-3.77,14.33,14.33,0,0,0-.6-6,12.19,12.19,0,0,0-5.68-6.41c-1.44-.79-3.15-1.47-3.81-3a3.1,3.1,0,0,1,1.37-3.89c1.29-.67,2.85-.33,4.29-.09a11.55,11.55,0,0,0,3.89.11,18.12,18.12,0,0,0,3.71-1.59l-.31.16" fill="#97d8ff"/><path d="M134,65.14a7.12,7.12,0,0,0,4.08-3.63,15.73,15.73,0,0,1,2.54-4.14c1.18-1.14,3.17-1.65,4.42-.6a3.48,3.48,0,0,1,1.08,2.57,25.24,25.24,0,0,1-.24,2.87,13,13,0,0,0,6.76,12c1.15.63,2.45,1.14,3.17,2.23a3.23,3.23,0,0,1-1.52,4.6,8,8,0,0,1-3.61,0,12.74,12.74,0,0,0-12.49,6.43,8.94,8.94,0,0,1-2,3.18,3.29,3.29,0,0,1-4.75-1.13,7.16,7.16,0,0,1-.26-3.77,14.5,14.5,0,0,0-.61-6,12.19,12.19,0,0,0-5.68-6.41c-1.44-.79-3.15-1.47-3.81-3a3.1,3.1,0,0,1,1.37-3.89c1.29-.67,2.85-.33,4.29-.08a11.55,11.55,0,0,0,3.89.1A18.12,18.12,0,0,0,134.29,65l-.31.16" fill="#97d8ff"/><path d="M99.44,475.68a7.07,7.07,0,0,0,4.08-3.62,15.78,15.78,0,0,1,2.54-4.15c1.18-1.13,3.17-1.64,4.42-.6a3.46,3.46,0,0,1,1.07,2.58,22.81,22.81,0,0,1-.23,2.86,13,13,0,0,0,6.76,12,8.12,8.12,0,0,1,3.17,2.22,3.24,3.24,0,0,1-1.52,4.61,8,8,0,0,1-3.61,0,12.78,12.78,0,0,0-12.5,6.43,8.61,8.61,0,0,1-2,3.18,3.29,3.29,0,0,1-4.75-1.13,7.22,7.22,0,0,1-.27-3.76,14.33,14.33,0,0,0-.6-6A12.16,12.16,0,0,0,90.3,484c-1.44-.79-3.15-1.47-3.81-3a3.12,3.12,0,0,1,1.37-3.9c1.29-.67,2.85-.32,4.29-.08a11.29,11.29,0,0,0,3.89.1,17.08,17.08,0,0,0,3.71-1.59l-.31.16" fill="#cac1f6"/><path d="M247,343a9.9,9.9,0,0,0,5.66-5c1-2,1.89-4.18,3.52-5.75s4.39-2.27,6.12-.82a4.82,4.82,0,0,1,1.49,3.57,33.21,33.21,0,0,1-.33,4c-.54,6.72,3.45,13.47,9.38,16.68,1.59.87,3.39,1.58,4.39,3.09a4.48,4.48,0,0,1-2.1,6.38c-1.59.58-3.33.18-5,0-6.86-.74-14.15,2.78-17.32,8.91-.81,1.56-1.42,3.34-2.81,4.41a4.57,4.57,0,0,1-6.59-1.57c-.77-1.59-.5-3.46-.36-5.22a20.09,20.09,0,0,0-.84-8.27,16.84,16.84,0,0,0-7.88-8.89c-2-1.1-4.36-2-5.28-4.12a4.33,4.33,0,0,1,1.9-5.4c1.8-.92,4-.45,5.94-.11a15.81,15.81,0,0,0,5.4.14c1.9-.34,3.4-1.46,5.15-2.2L247,343" fill="#cac1f6"/><path d="M85.88,17.26a9.91,9.91,0,0,0,5.66-5c1.06-2,1.9-4.18,3.53-5.75s4.39-2.28,6.12-.83a4.84,4.84,0,0,1,1.49,3.57,33,33,0,0,1-.33,4c-.54,6.73,3.45,13.47,9.38,16.69,1.59.86,3.39,1.57,4.39,3.08A4.48,4.48,0,0,1,114,39.34c-1.58.58-3.32.19-5,0-6.86-.73-14.15,2.78-17.32,8.91-.81,1.57-1.42,3.34-2.81,4.41a4.56,4.56,0,0,1-6.59-1.56c-.77-1.59-.51-3.46-.36-5.22a20.12,20.12,0,0,0-.84-8.28,16.89,16.89,0,0,0-7.88-8.88c-2-1.1-4.36-2-5.28-4.12a4.32,4.32,0,0,1,1.9-5.4c1.79-.93,4-.45,5.94-.11a16.06,16.06,0,0,0,5.4.14c1.9-.34,3.4-1.47,5.15-2.21l-.44.23" fill="#cac1f6"/><path d="M.19,32.15A41.6,41.6,0,0,1,9.78,29.3c24.53-3.76,45.7,1.59,61.52,20.57s43.91,46.69,79.32,49.85S211.94,110,228.16,131s28.09,48.07,21,75.76-30.06,49.06-33.42,69.63-7.32,15.43-4.55,66.85-34.62,75.57-34.62,75.57a80.75,80.75,0,0,1-16.61,8.9s-50.64,10.08-54.6,12.46S83,443.9,58.44,477.92c0,0-17.4,20.37-40.55,29.47a95.58,95.58,0,0,1-17,5.11" fill="#e1eeff"/><path d="M61,271.17a15.07,15.07,0,1,0,15.15-15,14.37,14.37,0,0,0-3.49.4.49.49,0,0,0,0,.11l-.48,0A15,15,0,0,0,61,271.17Zm8.31-2.2a4.28,4.28,0,0,1,2.22-2.6s0,0,0,0a6.57,6.57,0,0,1,4.56-1.78A6.69,6.69,0,1,1,70.56,275l-.49,0C69.38,273.14,68.65,271,69.35,269Z" fill="#6d6da9"/><rect x="20.83" y="203.95" width="33.76" height="4.55" rx="2.28" transform="translate(74.25 412.66) rotate(-179.68)" fill="#6d6da9" stroke="#6d6da9" stroke-miterlimit="10"/><rect x="11.6" y="193.24" width="43.05" height="4.55" rx="2.28" transform="translate(65.14 391.22) rotate(-179.68)" fill="#6d6da9" stroke="#6d6da9" stroke-miterlimit="10"/><rect x="11.26" y="182.56" width="43.05" height="4.55" rx="2.28" transform="translate(64.53 369.85) rotate(-179.68)" fill="#6d6da9" stroke="#6d6da9" stroke-miterlimit="10"/><rect x="21.01" y="171.9" width="32.84" height="4.55" rx="2.28" transform="translate(73.87 348.56) rotate(-179.68)" fill="#6d6da9" stroke="#6d6da9" stroke-miterlimit="10"/><rect x="21.01" y="161.22" width="32.84" height="4.55" rx="2.28" transform="translate(73.93 327.2) rotate(-179.68)" fill="#6d6da9" stroke="#6d6da9" stroke-miterlimit="10"/><rect x="21.07" y="150.54" width="32.84" height="4.55" rx="2.28" transform="translate(74.11 305.84) rotate(-179.68)" fill="#6d6da9" stroke="#6d6da9" stroke-miterlimit="10"/><path d="M-.22,162.61c0,1.85,0,3.7,0,5.56s0,3.88,0,5.82,0,4,0,5.95l0,6c0,1.94,0,3.88,0,5.82s0,3.7.05,5.55,0,3.45,0,5.17L0,207.09c0,1.33,0,2.66,0,4,0,1.07,0,2.15,0,3.22,0,.59,0,1.19,0,1.78l0,1.53a1.21,1.21,0,0,0,.05.43,1.47,1.47,0,0,0,.36.53c.4.44.82,1,1.47.93,0,.62,0,1.24,0,1.86,0,1.37,0,2.74,0,4.12,0,.72,0,1.45,0,2.17v.12l-2,.09,0,9.33L-1,409l0,5.87,27.27.16,10,0c3.3,0,6.58.09,9.88.17,1.51,0,3,.05,4.54-.05a6.84,6.84,0,0,0,2-.35,4.8,4.8,0,0,0,1.61-1.06,2.18,2.18,0,0,0,.25-.28A11.51,11.51,0,0,0,56,411a25.56,25.56,0,0,0,2-5.77,63.11,63.11,0,0,0,1-12.35c0-1.25,0-2.51,0-3.76,0-2.55,0-5.11.11-7.67.1-2.24,0-4.52.21-6.77.56-4.8,2.89-9.21,7.6-11,3.86-1.47,8.14-.82,12.15-.58l4.4.27a31.43,31.43,0,0,0,10.15-.57,21.56,21.56,0,0,0,6.79-2.92c4.39-3,5.8-8.2,6.18-13.4l-.1-.06a2.36,2.36,0,0,0,.12-.28c.12-2,.09-4.05,0-5.94-.14-4.47-1.1-8.9-1-13.36a20.16,20.16,0,0,1,.38-3.64,4.57,4.57,0,0,1,1.4-2.6c1.42-1.27,3.61-1.27,5.38-1.78,2.25-.67,4.48-1.38,6.68-2.23a6.92,6.92,0,0,0,4.42-7,12.93,12.93,0,0,0-2.29-5.83,30.8,30.8,0,0,0-3.15-3.84c-3-3.14-5.9-6.25-8.6-9.63l-.09-.1a24.9,24.9,0,0,1-3.53-5.31,22.16,22.16,0,0,1-1.69-6.31,26.6,26.6,0,0,1-.18-3.34c.09-6.93.73-13.93.06-20.85a126.57,126.57,0,0,0-2.34-16.17,79.42,79.42,0,0,0-2.49-9,58.48,58.48,0,0,0-3.79-8.73c-.38-.71-.8-1.43-1.24-2.15q-.33-.54-.69-1.08c-.23-.36-.46-.71-.71-1.08-.75-1.1-1.55-2.21-2.38-3.31-.25-.33-.51-.65-.77-1s-.55-.71-.83-1c-.85-1.05-1.71-2.08-2.59-3.08l-.87-1c-.63-.7-1.25-1.39-1.87-2.06l-1.44-1.54-1-1-.83-.85-.8-.81-.59-.58-.58-.58-1.62-1.57-.51-.48-.94-.89-.52-.49c-.94-.86-1.68-1.53-2.15-1.94l-.54-.48.2-36.15a19.58,19.58,0,0,0-.07-3.34,9,9,0,0,0-1-2.7,12,12,0,0,0-1.58-2.34,7.56,7.56,0,0,0-2.83-2,6.81,6.81,0,0,0-2.93-.46s-1-5.84-6.88-7.06c-2.6-.53-13-.66-23.78-.63-3.19,0-6.42,0-9.5.06-3.63,0-7.06.08-10,.11l-1.33,0H11.16c-.29,0-.58,0-.85,0l-.8,0H9.13l-4.19.07a5.34,5.34,0,0,0-1.92.57A4.91,4.91,0,0,0,.55,141.9a2.74,2.74,0,0,0-.18.62l0,.22h0c0,.13,0,.26,0,.39-.09.9-.15,1.8-.19,2.71s-.08,2-.11,2.95q-.15,4.32-.16,8.64C-.19,159.16-.21,160.88-.22,162.61Zm60.5-12.46a3.91,3.91,0,0,0-.41.3l-.35,61.23c.17,4.74-3.68,4.72-3.68,4.72s-45.89-.16-49.16-.28a3.81,3.81,0,0,1-.86-.11,4.66,4.66,0,0,1-3.12-2.34,4.35,4.35,0,0,1-.3-.6.08.08,0,0,1,0,0l.38-66.56a4.25,4.25,0,0,1,.31-.68A4.78,4.78,0,0,1,4.72,144a5,5,0,0,1,1-.48.83.83,0,0,1,.18,0l.14,0,.12,0,50.05.28a4,4,0,0,1,3.64,3.68l0,2.42Zm7.39,72.36c0,5.44-3.89,5.63-3.89,5.63l-4.55,0-47-.28a10.19,10.19,0,0,1-1.26,0l-.68-.1-.31-.08a5.76,5.76,0,0,1-.83-.28,3.92,3.92,0,0,1-.73-.4,4.37,4.37,0,0,1-1.81-2.71l0-3.65,50.34.29a9.33,9.33,0,0,0,7-7.68l.19-25.83a57.69,57.69,0,0,1,.09-12l.16-22.33,0-2.37a4,4,0,0,1,2.8,1.93,2.11,2.11,0,0,1,.24.44,6.26,6.26,0,0,1,.55,1.65c0,.22,0,.35,0,.35ZM2,282.1l.28-48.23a7.37,7.37,0,0,0,0-1.69,1.06,1.06,0,0,0,.47.13,3.86,3.86,0,0,0,3.42-1c.08-.09.16-.22.09-.33a3.25,3.25,0,0,0,.81.61A4.43,4.43,0,0,0,8,232a3.45,3.45,0,0,0,.43.12,1.38,1.38,0,0,0,.27.08l.41.09c.38.06.74.11,1.08.14l53.51.18A9,9,0,0,0,72.21,225l.14-25.62a10,10,0,0,1,2.86,2l.15.14c.21.18.42.39.62.59l1,1c1.1,1.12,2.27,2.41,3.42,3.73.47.53.92,1.07,1.37,1.6a.34.34,0,0,0,.06.06c.67.78,1.31,1.56,1.92,2.31l.62.76c.1.14.2.26.3.38l.78.95c1.42,1.79,2.53,3.23,3,3.91l.16.21.15.19a58.64,58.64,0,0,1,3.78,6.51,61.31,61.31,0,0,1,3.25,7.77c.46,1.35.88,2.71,1.24,4.1.42,1.6.82,3.22,1.16,4.86a72.35,72.35,0,0,1,1.28,8.09c.43,4.37.42,8.78.46,13.17,0,1.73,0,3.47,0,5.21l.52,13.75c.26,6.14,6.36,12.59,6.36,12.59q1.94,2.19,3.82,4.4a17.61,17.61,0,0,1,1.39,1.65l1,1.22c1.61,1.93,3.21,3.87,4.71,5.89,1,1.35,2.76,3.21,1.67,5-1,1.56-3.85,2.24-5.53,2.68s-3.18.75-4.75,1.22a18.43,18.43,0,0,0-4.25,1.47c-2.14,1.26-3,3.89-3.34,6.2a33.07,33.07,0,0,0,0,7.24l.42,7.55q.1,1.86.18,3.72a49.56,49.56,0,0,1-.11,6.67c0,.46-.11.92-.19,1.38a12,12,0,0,1-.27,1.19,11.1,11.1,0,0,1-3.09,5.11,10.78,10.78,0,0,1-5.55,2.7,34.06,34.06,0,0,1-5.32.65A47.32,47.32,0,0,1,82.2,359c-1.35,0-2.72-.2-4.06-.29s-2.86-.08-4.29-.09-2.69-.09-4,0a15.74,15.74,0,0,0-8.42,3.17,16,16,0,0,0-3.39,3.34,16.34,16.34,0,0,0-1.82,4.26c-1.28,3.82-1.41,7.85-1.53,11.85,0,1.43-.16,2.86-.16,4.28s0,3,0,4.55c0,2.66-.14,5.3-.32,8-.11,1.51-.15,3.06-.35,4.56a20.53,20.53,0,0,1-2.16,7.26c-.58,1-1.32,1-2.37,1l-3.67-.05-7.35-.1L28,410.58l-4.8-.06.57-92.18,3.31,4.47c1.9,2.55,3.79,5.11,5.7,7.67a1.74,1.74,0,0,0,.18.22,1.09,1.09,0,0,0,.39.19,2.72,2.72,0,0,0,2.28.07,2.47,2.47,0,0,0,.73-2.59,8.28,8.28,0,0,0-1.29-1.9l-.86-1.21c-.7-1-1.4-2-2.11-2.93l-5.63-7.86c-.68-1-1.4-1.89-2-2.85a5.68,5.68,0,0,0-2.08-2.16,1.93,1.93,0,0,0-1.2-.18c-1,.22-1.63,1.54-2.22,2.34-1.52,2-3,4-4.52,6l-5.18,6.88-1.47,2a5.21,5.21,0,0,0-1.07,1.65,3.9,3.9,0,0,0,0,1.08c.09,1.41,1.21,2,2.53,1.75a2.2,2.2,0,0,0,.8-.25A6.57,6.57,0,0,0,11.31,329l1.54-2c1-1.35,2.12-2.67,3.07-4.07l3.44-4.56-.44,71c0,.64,0,1.28,0,1.92,0,.38,0,.75,0,1.12l-.12,18.32-17.46-.1,0-2L2,289.88l1.81,2.42q3.54,4.72,7.06,9.46c.63.84,2.05,1.49,3,.74a2.76,2.76,0,0,0,.67-2.7,3.08,3.08,0,0,0-.44-.74c-1.29-1.77-2.57-3.54-3.86-5.3-1.82-2.52-3.65-5-5.47-7.56L2,282.42A1.14,1.14,0,0,1,2,282.1Z" fill="#6d6da9"/><path d="M-.22,162.61c0,1.85,0,3.7,0,5.56s0,3.88,0,5.82,0,4,0,5.95l0,6c0,1.94,0,3.88,0,5.82s0,3.7.05,5.55,0,3.45,0,5.17L0,207.09c0,1.33,0,2.66,0,4,0,1.07,0,2.15,0,3.22,0,.59,0,1.19,0,1.78l0,1.53a1.21,1.21,0,0,0,.05.43,1.47,1.47,0,0,0,.36.53c.4.44.82,1,1.47.93,0,.62,0,1.24,0,1.86,0,1.37,0,2.74,0,4.12,0,.72,0,1.45,0,2.17v.12l-2,.09,0,9.33L-1,409l0,5.87,27.27.16,10,0c3.3,0,6.58.09,9.88.17,1.51,0,3,.05,4.54-.05a6.84,6.84,0,0,0,2-.35,4.8,4.8,0,0,0,1.61-1.06,2.18,2.18,0,0,0,.25-.28A11.51,11.51,0,0,0,56,411a25.56,25.56,0,0,0,2-5.77,63.11,63.11,0,0,0,1-12.35c0-1.25,0-2.51,0-3.76,0-2.55,0-5.11.11-7.67.1-2.24,0-4.52.21-6.77.56-4.8,2.89-9.21,7.6-11,3.86-1.47,8.14-.82,12.15-.58l4.4.27a31.43,31.43,0,0,0,10.15-.57,21.56,21.56,0,0,0,6.79-2.92c4.39-3,5.8-8.2,6.18-13.4,0-.11,0-.23,0-.34.12-2,.09-4.05,0-5.94-.14-4.47-1.1-8.9-1-13.36a20.16,20.16,0,0,1,.38-3.64,4.57,4.57,0,0,1,1.4-2.6c1.42-1.27,3.61-1.27,5.38-1.78,2.25-.67,4.48-1.38,6.68-2.23a6.92,6.92,0,0,0,4.42-7,12.93,12.93,0,0,0-2.29-5.83,30.8,30.8,0,0,0-3.15-3.84c-3-3.14-5.9-6.25-8.6-9.63l-.09-.1a24.9,24.9,0,0,1-3.53-5.31,22.16,22.16,0,0,1-1.69-6.31,26.6,26.6,0,0,1-.18-3.34c.09-6.93.73-13.93.06-20.85a126.57,126.57,0,0,0-2.34-16.17,79.42,79.42,0,0,0-2.49-9,58.48,58.48,0,0,0-3.79-8.73c-.38-.71-.8-1.43-1.24-2.15q-.33-.54-.69-1.08c-.23-.36-.46-.71-.71-1.08-.75-1.1-1.55-2.21-2.38-3.31-.25-.33-.51-.65-.77-1s-.55-.71-.83-1c-.85-1.05-1.71-2.08-2.59-3.08l-.87-1c-.63-.7-1.25-1.39-1.87-2.06l-1.44-1.54-1-1-.83-.85-.8-.81-.59-.58-.58-.58-1.62-1.57-.51-.48-.94-.89-.52-.49c-.94-.86-1.68-1.53-2.15-1.94l-.54-.48.2-36.15a19.58,19.58,0,0,0-.07-3.34,9,9,0,0,0-1-2.7,12,12,0,0,0-1.58-2.34,7.56,7.56,0,0,0-2.83-2,6.81,6.81,0,0,0-2.93-.46s-1-5.84-6.88-7.06c-2.6-.53-13-.66-23.78-.63-3.19,0-6.42,0-9.5.06-3.63,0-7.06.08-10,.11l-1.33,0H11.16c-.29,0-.58,0-.85,0l-.8,0H9.13l-4.19.07a5.34,5.34,0,0,0-1.92.57A4.91,4.91,0,0,0,.55,141.9a2.74,2.74,0,0,0-.18.62,1.7,1.7,0,0,0,0,.22c0,.13,0,.26,0,.39-.09.9-.15,1.8-.19,2.71s-.08,2-.11,2.95q-.15,4.32-.16,8.64C-.19,159.16-.21,160.88-.22,162.61Zm59.74,49.07c.17,4.74-3.68,4.72-3.68,4.72s-45.89-.16-49.16-.28a3.81,3.81,0,0,1-.86-.11,4.66,4.66,0,0,1-3.12-2.34,4.35,4.35,0,0,1-.3-.6.08.08,0,0,1,0,0l.38-66.56a4.25,4.25,0,0,1,.31-.68A4.78,4.78,0,0,1,4.72,144a5,5,0,0,1,1-.48.83.83,0,0,1,.18,0l.14,0,.12,0,50.05.28a4,4,0,0,1,3.64,3.68Zm8.15,10.83c0,5.44-3.89,5.63-3.89,5.63l-4.55,0-47-.28a8.55,8.55,0,0,1-1.26,0,4.63,4.63,0,0,1-.68-.1,1.57,1.57,0,0,1-.31-.08,4,4,0,0,1-.83-.28,3.92,3.92,0,0,1-.73-.4,4.37,4.37,0,0,1-1.81-2.71l0-3.65,50.34.29a9.33,9.33,0,0,0,7-7.68l.19-25.83.09-12,.16-22.33,0-2.37a4,4,0,0,1,2.8,1.93,2.11,2.11,0,0,1,.24.44,6.26,6.26,0,0,1,.55,1.65c0,.22,0,.35,0,.35ZM2,282.1l.28-48.23a7.37,7.37,0,0,0,0-1.69,1.06,1.06,0,0,0,.47.13,3.86,3.86,0,0,0,3.42-1c.08-.09.16-.22.09-.33a3.25,3.25,0,0,0,.81.61A4.43,4.43,0,0,0,8,232a3.45,3.45,0,0,0,.43.12,1.38,1.38,0,0,0,.27.08l.41.09c.38.06.74.11,1.08.14l53.51.18A9,9,0,0,0,72.21,225l.14-25.62a10,10,0,0,1,2.86,2h0l.15.13c.21.18.42.39.62.59l1,1c1.1,1.12,2.27,2.41,3.42,3.73.47.53.92,1.07,1.37,1.6a.34.34,0,0,0,.06.06c.66.78,1.3,1.56,1.92,2.31l.62.76c.1.14.2.26.3.38l.78.95c1.42,1.79,2.53,3.23,3,3.91l.16.21.15.19a58.64,58.64,0,0,1,3.78,6.51,61.31,61.31,0,0,1,3.25,7.77c.46,1.35.88,2.71,1.24,4.1.42,1.6.82,3.22,1.16,4.86a72.35,72.35,0,0,1,1.28,8.09c.43,4.37.42,8.78.46,13.17,0,1.73,0,3.47,0,5.21l.52,13.75c.26,6.14,6.36,12.59,6.36,12.59q1.94,2.19,3.82,4.4l1.39,1.65,1,1.22c1.61,1.93,3.21,3.87,4.71,5.89,1,1.35,2.76,3.21,1.67,5-1,1.56-3.85,2.24-5.53,2.68s-3.18.75-4.75,1.22a18.43,18.43,0,0,0-4.25,1.47c-2.14,1.26-3,3.89-3.34,6.2a33.07,33.07,0,0,0,0,7.24l.42,7.55q.1,1.86.18,3.72a49.56,49.56,0,0,1-.11,6.67c0,.46-.11.92-.19,1.38a12,12,0,0,1-.27,1.19,11.1,11.1,0,0,1-3.09,5.11,10.78,10.78,0,0,1-5.55,2.7,34.06,34.06,0,0,1-5.32.65A47.32,47.32,0,0,1,82.2,359c-1.35,0-2.72-.2-4.06-.29s-2.86-.08-4.29-.09-2.69-.09-4,0a15.74,15.74,0,0,0-8.42,3.17,16,16,0,0,0-3.39,3.34,16.34,16.34,0,0,0-1.82,4.26c-1.28,3.82-1.41,7.85-1.53,11.85,0,1.43-.16,2.86-.16,4.28s0,3,0,4.55c0,2.66-.14,5.3-.32,8-.11,1.51-.15,3.06-.35,4.56a20.53,20.53,0,0,1-2.16,7.26c-.58,1-1.32,1-2.37,1l-3.67-.05-7.35-.1L28,410.58l-4.8-.06.57-92.18,3.31,4.47c1.9,2.55,3.79,5.11,5.7,7.67a1.74,1.74,0,0,0,.18.22,1.09,1.09,0,0,0,.39.19,2.72,2.72,0,0,0,2.28.07,2.47,2.47,0,0,0,.73-2.59,8.28,8.28,0,0,0-1.29-1.9l-.86-1.21c-.7-1-1.4-2-2.11-2.93l-5.63-7.86c-.68-1-1.4-1.89-2-2.85a5.68,5.68,0,0,0-2.08-2.16,1.93,1.93,0,0,0-1.2-.18c-1,.22-1.63,1.54-2.22,2.34-1.52,2-3,4-4.52,6l-5.18,6.88-1.47,2a5.21,5.21,0,0,0-1.07,1.65,3.9,3.9,0,0,0,0,1.08c.09,1.41,1.21,2,2.53,1.75a2.2,2.2,0,0,0,.8-.25A6.57,6.57,0,0,0,11.31,329l1.54-2c1-1.35,2.12-2.67,3.07-4.07l3.44-4.56-.44,71,0,3-.12,18.32-17.46-.1,0-2L2,289.88l1.81,2.42q3.54,4.72,7.06,9.46c.63.84,2.05,1.49,3,.74a2.76,2.76,0,0,0,.67-2.7,3.08,3.08,0,0,0-.44-.74c-1.29-1.77-2.57-3.54-3.86-5.3-1.82-2.52-3.65-5-5.47-7.56L2,282.42A1.14,1.14,0,0,1,2,282.1Z" fill="none" stroke="#6d6da9" stroke-miterlimit="10"/><path d="M61,271.17a15.07,15.07,0,1,0,15.15-15,14.37,14.37,0,0,0-3.49.4,3.3,3.3,0,0,0-.52.13A15,15,0,0,0,61,271.17ZM70.56,275a6.67,6.67,0,0,1-1.13-3.77,6.6,6.6,0,0,1,2.14-4.85s0,0,0,0a6.57,6.57,0,0,1,4.56-1.78A6.69,6.69,0,1,1,70.56,275Z" fill="none" stroke="#6d6da9" stroke-miterlimit="10"/><path d="M4.72,144a5,5,0,0,1,1-.48A4.12,4.12,0,0,0,4.72,144Z" fill="none" stroke="#6d6da9" stroke-miterlimit="10"/><path d="M32.92,143.58,6.2,143.43l-.12,0-.14,0a.83.83,0,0,0-.18,0,4.12,4.12,0,0,0-1,.48,4.78,4.78,0,0,0-1.64,1.78" fill="none" stroke="#6d6da9" stroke-miterlimit="10"/><path d="M61,271.17a15.07,15.07,0,1,0,15.15-15,14.37,14.37,0,0,0-3.49.4,3.3,3.3,0,0,0-.52.13A15,15,0,0,0,61,271.17ZM70.56,275a6.67,6.67,0,0,1-1.13-3.77,6.6,6.6,0,0,1,2.14-4.85s0,0,0,0a6.57,6.57,0,0,1,4.56-1.78A6.69,6.69,0,1,1,70.56,275Z" fill="none" stroke="#6d6da9" stroke-miterlimit="10"/><path d="M32.92,143.58l23.33.13a4,4,0,0,1,3.64,3.68l0,2.42v.64l-.35,61.23c.17,4.74-3.68,4.72-3.68,4.72s-45.89-.16-49.16-.28a3.81,3.81,0,0,1-.86-.11,4.66,4.66,0,0,1-3.12-2.34,4.35,4.35,0,0,1-.3-.6.08.08,0,0,1,0,0l.38-66.56a4.25,4.25,0,0,1,.31-.68" fill="none" stroke="#6d6da9" stroke-miterlimit="10"/><path d="M61,271.17a15.07,15.07,0,1,0,15.15-15,14.37,14.37,0,0,0-3.49.4,3.3,3.3,0,0,0-.52.13A15,15,0,0,0,61,271.17ZM70.56,275a6.67,6.67,0,0,1-1.13-3.77,6.6,6.6,0,0,1,2.14-4.85s0,0,0,0a6.57,6.57,0,0,1,4.56-1.78A6.69,6.69,0,1,1,70.56,275Z" fill="none" stroke="#6d6da9" stroke-miterlimit="10"/></svg>