<svg id="Layer_1" data-name="Layer 1" xmlns="http://www.w3.org/2000/svg" viewBox="0 0 285.88 519.79"><title>Artboard ۳side</title><path d="M47.44,151.37a7.18,7.18,0,0,0,4.08-3.63,15.68,15.68,0,0,1,2.54-4.15c1.18-1.13,3.17-1.64,4.42-.59a3.43,3.43,0,0,1,1.07,2.57,23.12,23.12,0,0,1-.23,2.87,13,13,0,0,0,6.76,12c1.15.63,2.45,1.14,3.17,2.23a3.24,3.24,0,0,1-1.52,4.6,8,8,0,0,1-3.61,0,12.76,12.76,0,0,0-12.5,6.43,8.91,8.91,0,0,1-2,3.18,3.29,3.29,0,0,1-4.75-1.13,7.26,7.26,0,0,1-.27-3.77,14.33,14.33,0,0,0-.6-6,12.19,12.19,0,0,0-5.68-6.41c-1.44-.79-3.15-1.47-3.81-3a3.1,3.1,0,0,1,1.37-3.89c1.29-.67,2.85-.33,4.28-.08a11.61,11.61,0,0,0,3.9.1,18.12,18.12,0,0,0,3.71-1.59l-.31.16" fill="#97d8ff"/><path d="M17.47,274.12a8.86,8.86,0,0,0,5.1-4.53c1-1.8,1.71-3.77,3.18-5.18s4-2.06,5.52-.75a4.33,4.33,0,0,1,1.34,3.22,33.21,33.21,0,0,1-.29,3.58,16.19,16.19,0,0,0,8.45,15c1.43.78,3.06,1.42,4,2.78a4,4,0,0,1-1.9,5.75c-1.43.52-3,.17-4.51,0-6.19-.66-12.76,2.51-15.62,8-.73,1.41-1.27,3-2.53,4a4.12,4.12,0,0,1-5.94-1.41c-.69-1.44-.45-3.12-.33-4.71a17.9,17.9,0,0,0-.75-7.46,15.24,15.24,0,0,0-7.1-8c-1.8-1-3.93-1.84-4.76-3.71A3.9,3.9,0,0,1,3,275.88c1.62-.83,3.56-.4,5.36-.1a14.43,14.43,0,0,0,4.86.13c1.71-.31,3.07-1.32,4.64-2l-.39.2" fill="#cac1f6"/><path d="M146.78,477.19a10,10,0,0,0,5.66-5c1.05-2,1.89-4.18,3.52-5.75s4.39-2.28,6.12-.83a4.82,4.82,0,0,1,1.49,3.57,33,33,0,0,1-.33,4c-.54,6.73,3.45,13.47,9.38,16.69,1.59.86,3.39,1.57,4.39,3.08a4.48,4.48,0,0,1-2.11,6.38c-1.58.58-3.32.19-5,0-6.86-.73-14.15,2.78-17.32,8.91-.81,1.57-1.42,3.34-2.81,4.41a4.56,4.56,0,0,1-6.59-1.56c-.77-1.6-.51-3.46-.36-5.23a20.09,20.09,0,0,0-.84-8.27,16.91,16.91,0,0,0-7.88-8.89c-2-1.09-4.36-2-5.28-4.12a4.32,4.32,0,0,1,1.9-5.39c1.79-.93,3.95-.45,5.94-.12a15.56,15.56,0,0,0,5.4.14c1.9-.33,3.4-1.46,5.15-2.2l-.43.22" fill="#cac1f6"/><path d="M223.76,12.39a9.92,9.92,0,0,0,5.66-5c1.06-2,1.89-4.19,3.52-5.75s4.39-2.28,6.13-.83a4.81,4.81,0,0,1,1.48,3.57,35.21,35.21,0,0,1-.32,4c-.54,6.73,3.44,13.47,9.37,16.69,1.59.86,3.4,1.57,4.39,3.08a4.48,4.48,0,0,1-2.1,6.38c-1.58.58-3.33.19-5,0-6.87-.73-14.16,2.78-17.33,8.91-.81,1.56-1.41,3.34-2.81,4.41a4.57,4.57,0,0,1-6.59-1.56c-.76-1.6-.5-3.46-.36-5.23a20.09,20.09,0,0,0-.84-8.27,16.87,16.87,0,0,0-7.88-8.89c-2-1.1-4.35-2-5.28-4.12a4.33,4.33,0,0,1,1.9-5.39c1.8-.93,4-.45,6-.12a15.74,15.74,0,0,0,5.39.14c1.9-.34,3.41-1.46,5.15-2.2l-.43.22" fill="#cac1f6"/><path d="M286.88,510c-15.2,2.89-28.2.09-41.95-9.86-18.6-13.45-46.69-49.26-58.36-52.62s-13.64-13.45-51.23-9.3-70-23.34-70-23.34-30.46-21.95-30.06-53.4,22-43.32,26.11-55.78c0,0,17.8-30.92,15.82-46.42,0,0,1.38-20.44.4-20.64s-1.78-31.25-1.78-31.25,1.38-30.86,7.91-48.07c0,0,13.65-35,30.46-46.08s24.72-14.84,40.55-17.41,32.64-4,32.64-4,17.2-2.57,22.35-4.15,26.7-19.78,26.7-19.78,26.65-28.62,49.75-38.3" fill="#e1eeff"/><path d="M213.17,256.27l-.48,0a.25.25,0,0,0,0-.11,14.32,14.32,0,0,0-3.49-.42,15.1,15.1,0,1,0,4,.55Zm2,18.31-.48,0a6.69,6.69,0,1,1-5.53-10.44,6.56,6.56,0,0,1,4.55,1.81s0,0,0,0a4.3,4.3,0,0,1,2.22,2.61C216.62,270.53,215.87,272.71,215.17,274.58Z" fill="#6d6da9"/><rect x="231.05" y="203.69" width="33.76" height="4.55" rx="2.28" fill="#6d6da9" stroke="#6d6da9" stroke-miterlimit="10"/><rect x="231.05" y="193.01" width="43.05" height="4.55" rx="2.28" fill="#6d6da9" stroke="#6d6da9" stroke-miterlimit="10"/><rect x="231.44" y="182.33" width="43.05" height="4.55" rx="2.28" fill="#6d6da9" stroke="#6d6da9" stroke-miterlimit="10"/><rect x="231.97" y="171.65" width="32.84" height="4.55" rx="2.28" fill="#6d6da9" stroke="#6d6da9" stroke-miterlimit="10"/><rect x="232.03" y="160.97" width="32.84" height="4.55" rx="2.28" fill="#6d6da9" stroke="#6d6da9" stroke-miterlimit="10"/><rect x="232.03" y="150.29" width="32.84" height="4.55" rx="2.28" fill="#6d6da9" stroke="#6d6da9" stroke-miterlimit="10"/><path d="M286.08,157.4c0-2.88,0-5.77-.11-8.65,0-1-.05-2-.1-2.95s-.09-1.81-.17-2.71c0-.13,0-.26,0-.39h0l0-.22a2.72,2.72,0,0,0-.17-.62,4.93,4.93,0,0,0-2.45-2.27,5.21,5.21,0,0,0-1.93-.58l-4.19-.1h-.38l-.8,0-.85,0h-.45l-.92,0h-.14l-1.33,0c-2.92-.05-6.35-.12-10-.17-3.08,0-6.3-.09-9.49-.12-10.82-.09-21.19,0-23.79.5-5.93,1.19-6.92,7-6.92,7a7,7,0,0,0-2.93.44,7.65,7.65,0,0,0-2.84,2,11.74,11.74,0,0,0-1.6,2.33,8.92,8.92,0,0,0-1.05,2.69,19.57,19.57,0,0,0-.09,3.34V193l-.55.48c-.46.41-1.21,1.07-2.15,1.93l-.53.49-1,.88-.51.48L207,198.83l-.58.57-.59.58q-.41.39-.81.81l-.83.84c-.32.33-.67.68-1,1s-1,1-1.46,1.53-1.25,1.35-1.88,2.05l-.88,1c-.88,1-1.75,2-2.6,3.07l-.84,1c-.26.33-.52.65-.77,1-.84,1.09-1.64,2.2-2.39,3.3-.25.36-.5.71-.73,1.07s-.47.72-.69,1.08c-.45.71-.87,1.43-1.26,2.14a59.11,59.11,0,0,0-3.84,8.71,81.81,81.81,0,0,0-2.54,9,129.66,129.66,0,0,0-2.43,16.16c-.71,6.92-.11,13.92-.06,20.85a24.85,24.85,0,0,1-.2,3.34,22.14,22.14,0,0,1-1.72,6.3,24.3,24.3,0,0,1-3.56,5.29l-.09.1c-2.72,3.36-5.69,6.46-8.66,9.58a32.62,32.62,0,0,0-3.17,3.82,12.93,12.93,0,0,0-2.32,5.82,6.91,6.91,0,0,0,4.38,7c2.19.87,4.42,1.59,6.67,2.27,1.76.52,3.95.53,5.37,1.81a4.6,4.6,0,0,1,1.38,2.61,19.28,19.28,0,0,1,.36,3.64c.05,4.46-.94,8.89-1.11,13.36-.07,1.89-.11,3.91,0,5.94l.12.28-.1.06c.35,5.2,1.73,10.38,6.1,13.43a21.55,21.55,0,0,0,6.79,3,31.29,31.29,0,0,0,10.13.63l4.4-.25c4-.21,8.3-.84,12.16.65,4.69,1.82,7,6.24,7.53,11,.24,2.26.09,4.53.17,6.78.11,2.56.05,5.12.07,7.67,0,1.25,0,2.51,0,3.76a61.56,61.56,0,0,0,1,12.35,24.14,24.14,0,0,0,1.94,5.78,11.26,11.26,0,0,0,1.54,2.53,3.33,3.33,0,0,0,.25.28,4.64,4.64,0,0,0,1.6,1.07,6.53,6.53,0,0,0,2,.36c1.52.11,3,.11,4.54.08,3.3-.06,6.58-.12,9.88-.12h37.24V409l0-171.83v-9.33l-2-.1v-.12c0-.72,0-1.45,0-2.17,0-1.38,0-2.75.07-4.12,0-.62,0-1.24,0-1.86.65,0,1.07-.48,1.47-.92a1.5,1.5,0,0,0,.37-.53,1.21,1.21,0,0,0,0-.43l0-1.53c0-.59,0-1.19,0-1.78,0-1.07,0-2.15.05-3.22,0-1.33.05-2.66.07-4,0-1.55.05-3.1.08-4.65,0-1.72,0-3.44.07-5.17s.06-3.7.08-5.55.05-3.88.07-5.82l.06-6,.06-5.95c0-1.94,0-3.88,0-5.82s0-3.71,0-5.56S286.09,159.13,286.08,157.4Zm-60-8V147a4,4,0,0,1,3.67-3.66h50l.12,0,.15,0,.17.05a4.63,4.63,0,0,1,2.66,2.28,3.52,3.52,0,0,1,.31.68V213a4.35,4.35,0,0,1-.3.6,4.64,4.64,0,0,1-3.13,2.32,3.81,3.81,0,0,1-.86.11c-3.27.1-49.15,0-49.15,0s-3.86,0-3.67-4.74V150.08a2.94,2.94,0,0,0-.41-.31Zm-8.21,5.2s0-.13,0-.35a6.66,6.66,0,0,1,.55-1.65,2.76,2.76,0,0,1,.25-.44,4,4,0,0,1,2.81-1.91v2.37l0,22.33a57,57,0,0,1,0,12l0,25.83a9.34,9.34,0,0,0,6.93,7.72H278.9v3.65a4.39,4.39,0,0,1-1.83,2.7,4.18,4.18,0,0,1-.73.39,5.76,5.76,0,0,1-.83.28l-.31.07c-.2,0-.44.07-.68.1a8.63,8.63,0,0,1-1.26,0l-47,0h-4.55s-3.86-.21-3.86-5.65ZM283.2,282.37q-1.4,1.89-2.76,3.77-2.78,3.76-5.52,7.52L271,298.94a4,4,0,0,0-.45.74,2.78,2.78,0,0,0,.67,2.7c.95.76,2.38.12,3-.72,2.36-3.15,4.74-6.28,7.11-9.42l1.83-2.41-.05,118.66v2.05H265.69V392.22c0-.37,0-.74,0-1.12,0-.64,0-1.28,0-1.92l-.05-71,3.42,4.58c.94,1.41,2,2.73,3,4.09l1.53,2.05a6.33,6.33,0,0,0,1.34,1.69,2.09,2.09,0,0,0,.8.26c1.31.22,2.44-.33,2.54-1.74a3.9,3.9,0,0,0-.05-1.08,4.85,4.85,0,0,0-1.06-1.65l-1.45-2-5.15-6.91c-1.48-2-3-4-4.48-6-.59-.8-1.2-2.12-2.21-2.35a1.93,1.93,0,0,0-1.2.18,5.72,5.72,0,0,0-2.09,2.14c-.65,1-1.37,1.89-2.06,2.84l-5.68,7.83L250.76,325c-.29.4-.57.8-.87,1.2a8.32,8.32,0,0,0-1.3,1.9,2.47,2.47,0,0,0,.72,2.59,2.72,2.72,0,0,0,2.28-.06,1.09,1.09,0,0,0,.39-.19.7.7,0,0,0,.18-.21q2.88-3.83,5.74-7.64l3.35-4.45,0,92.18-4.81,0-10.29.07-7.36.06-3.67,0c-1,0-1.79,0-2.35-1a20.17,20.17,0,0,1-2.12-7.27c-.19-1.51-.23-3.06-.32-4.57-.18-2.66-.25-5.3-.29-8,0-1.51,0-3,0-4.55s-.14-2.85-.14-4.28c-.1-4-.19-8-1.46-11.86a12.08,12.08,0,0,0-5.17-7.63,15.73,15.73,0,0,0-8.4-3.21c-1.29-.14-2.68-.06-4-.07s-2.86,0-4.29.07-2.71.27-4.06.27a49.55,49.55,0,0,1-5.45.2,33.83,33.83,0,0,1-5.31-.68,10.76,10.76,0,0,1-5.54-2.73,11,11,0,0,1-3.06-5.12q-.17-.6-.27-1.2t-.18-1.38a47.94,47.94,0,0,1-.07-6.67c.06-1.24.12-2.48.2-3.72.15-2.51.31-5,.46-7.54a33.07,33.07,0,0,0,0-7.24c-.37-2.32-1.17-4.95-3.3-6.22a18.6,18.6,0,0,0-4.24-1.5c-1.57-.48-3.16-.81-4.75-1.24s-4.56-1.15-5.51-2.72c-1.08-1.8.68-3.65,1.7-5,1.52-2,3.12-3.94,4.74-5.86.34-.41.69-.81,1-1.21a16.43,16.43,0,0,1,1.4-1.64q1.89-2.21,3.84-4.38s6.14-6.42,6.44-12.56l.59-13.74c0-1.74,0-3.48,0-5.21.06-4.39.08-8.8.53-13.17a72,72,0,0,1,1.33-8.08c.35-1.64.76-3.26,1.19-4.86.37-1.38.79-2.74,1.26-4.09a61.33,61.33,0,0,1,3.3-7.75,58.6,58.6,0,0,1,3.81-6.49l.15-.19.16-.21c.52-.67,1.64-2.11,3.07-3.89l.78-1,.3-.37.63-.76c.61-.75,1.26-1.52,1.93-2.3,0,0,0,0,.06-.06.45-.53.92-1.06,1.38-1.59,1.17-1.32,2.33-2.6,3.44-3.71.33-.33.66-.65,1-1a6.85,6.85,0,0,1,.62-.58.93.93,0,0,1,.14-.14,10.07,10.07,0,0,1,2.87-2v25.62a9,9,0,0,0,8.51,7.62l53.51.13c.35,0,.7-.08,1.08-.14l.42-.09a1.43,1.43,0,0,0,.28-.07l.42-.12a4.43,4.43,0,0,0,.87-.36,3,3,0,0,0,.81-.6c-.07.11,0,.24.09.33a3.87,3.87,0,0,0,3.41,1,1.15,1.15,0,0,0,.48-.13,6.8,6.8,0,0,0,0,1.69v48.23A1.14,1.14,0,0,1,283.2,282.37Z" fill="#6d6da9"/><path d="M285.45,414.85V409l0-171.83v-9.33l-2-.1v-.12c0-.72,0-1.45,0-2.17,0-1.38,0-2.75.07-4.12,0-.62,0-1.24,0-1.86.65,0,1.07-.48,1.47-.92a1.5,1.5,0,0,0,.37-.53,1.21,1.21,0,0,0,0-.43l0-1.53c0-.59,0-1.19,0-1.78,0-1.07,0-2.15.05-3.22,0-1.33.05-2.66.07-4,0-1.55.05-3.1.08-4.65,0-1.72,0-3.44.07-5.17s.06-3.7.08-5.55.05-3.88.07-5.82l.06-6,.06-5.95c0-1.94,0-3.88,0-5.82s0-3.71,0-5.56,0-3.45,0-5.18c0-2.88,0-5.77-.11-8.65,0-1-.05-2-.1-2.95s-.09-1.81-.17-2.71c0-.13,0-.26,0-.39a1.7,1.7,0,0,0,0-.22,2.72,2.72,0,0,0-.17-.62m0,0a4.93,4.93,0,0,0-2.45-2.27,5.21,5.21,0,0,0-1.93-.58l-4.19-.1h-.38l-.8,0-.85,0h-.45l-.92,0h-.14l-1.33,0c-2.92-.05-6.35-.12-10-.17-3.08,0-6.3-.09-9.49-.12-10.82-.09-21.19,0-23.79.5-5.93,1.19-6.92,7-6.92,7a7,7,0,0,0-2.93.44,7.65,7.65,0,0,0-2.84,2,11.74,11.74,0,0,0-1.6,2.33,8.92,8.92,0,0,0-1.05,2.69,19.57,19.57,0,0,0-.09,3.34V193l-.55.48c-.46.41-1.21,1.07-2.15,1.93l-.53.49-1,.88-.51.48L207,198.83l-.58.57-.59.58q-.41.39-.81.81l-.83.84c-.32.33-.67.68-1,1s-1,1-1.46,1.53-1.25,1.35-1.88,2.05l-.88,1c-.88,1-1.75,2-2.6,3.07l-.84,1c-.26.33-.52.65-.77,1-.84,1.09-1.64,2.2-2.39,3.3-.25.36-.5.71-.73,1.07s-.47.72-.69,1.08c-.45.71-.87,1.43-1.26,2.14a59.11,59.11,0,0,0-3.84,8.71,81.81,81.81,0,0,0-2.54,9,129.66,129.66,0,0,0-2.43,16.16c-.71,6.92-.11,13.92-.06,20.85a24.85,24.85,0,0,1-.2,3.34,22.14,22.14,0,0,1-1.72,6.3,24.3,24.3,0,0,1-3.56,5.29l-.09.1c-2.72,3.36-5.69,6.46-8.66,9.58a32.62,32.62,0,0,0-3.17,3.82,12.93,12.93,0,0,0-2.32,5.82,6.91,6.91,0,0,0,4.38,7c2.19.87,4.42,1.59,6.67,2.27,1.76.52,3.95.53,5.37,1.81a4.6,4.6,0,0,1,1.38,2.61,19.28,19.28,0,0,1,.36,3.64c.05,4.46-.94,8.89-1.11,13.36-.07,1.89-.11,3.91,0,5.94,0,.11,0,.23,0,.34.35,5.2,1.73,10.38,6.1,13.43a21.55,21.55,0,0,0,6.79,3,31.29,31.29,0,0,0,10.13.63l4.4-.25c4-.21,8.3-.84,12.16.65,4.69,1.82,7,6.24,7.53,11,.24,2.26.09,4.53.17,6.78.11,2.56.05,5.12.07,7.67,0,1.25,0,2.51,0,3.76a61.56,61.56,0,0,0,1,12.35,24.14,24.14,0,0,0,1.94,5.78,11.26,11.26,0,0,0,1.54,2.53,3.33,3.33,0,0,0,.25.28,4.64,4.64,0,0,0,1.6,1.07,6.53,6.53,0,0,0,2,.36c1.52.11,3,.11,4.54.08,3.3-.06,6.58-.12,9.88-.12h37.24M226.08,147a4,4,0,0,1,3.67-3.66h50l.12,0,.15,0,.17.05a4.63,4.63,0,0,1,2.66,2.28,3.52,3.52,0,0,1,.31.68V213a4.35,4.35,0,0,1-.3.6,4.64,4.64,0,0,1-3.13,2.32,3.81,3.81,0,0,1-.86.11c-3.27.1-49.15,0-49.15,0s-3.86,0-3.67-4.74Zm-8.21,7.62s0-.13,0-.35a6.66,6.66,0,0,1,.55-1.65,2.76,2.76,0,0,1,.25-.44,4,4,0,0,1,2.81-1.91v2.37l0,22.33,0,12,0,25.83a9.34,9.34,0,0,0,6.93,7.72H278.9v3.65a4.39,4.39,0,0,1-1.83,2.7,4.18,4.18,0,0,1-.73.39,4,4,0,0,1-.83.28,1.08,1.08,0,0,1-.31.07,4.44,4.44,0,0,1-.68.1,7.43,7.43,0,0,1-1.26,0l-47,0h-4.55s-3.86-.21-3.86-5.65ZM283.2,282.37q-1.4,1.89-2.76,3.77-2.78,3.76-5.52,7.52L271,298.94a4,4,0,0,0-.45.74,2.78,2.78,0,0,0,.67,2.7c.95.76,2.38.12,3-.72,2.36-3.15,4.74-6.28,7.11-9.42l1.83-2.41-.05,118.66v2.05H265.69V389.18l-.05-71,3.42,4.58c.94,1.41,2,2.73,3,4.09l1.53,2.05a6.33,6.33,0,0,0,1.34,1.69,2.09,2.09,0,0,0,.8.26c1.31.22,2.44-.33,2.54-1.74a3.9,3.9,0,0,0-.05-1.08,4.85,4.85,0,0,0-1.06-1.65l-1.45-2-5.15-6.91c-1.48-2-3-4-4.48-6-.59-.8-1.2-2.12-2.21-2.35a1.93,1.93,0,0,0-1.2.18,5.72,5.72,0,0,0-2.09,2.14c-.65,1-1.37,1.89-2.06,2.84l-5.68,7.83L250.76,325c-.29.4-.57.8-.87,1.2a8.32,8.32,0,0,0-1.3,1.9,2.47,2.47,0,0,0,.72,2.59,2.72,2.72,0,0,0,2.28-.06,1.09,1.09,0,0,0,.39-.19.7.7,0,0,0,.18-.21q2.88-3.83,5.74-7.64l3.35-4.45,0,92.18-4.81,0-10.29.07-7.36.06-3.67,0c-1,0-1.79,0-2.35-1a20.17,20.17,0,0,1-2.12-7.27c-.19-1.51-.23-3.06-.32-4.57-.18-2.66-.25-5.3-.29-8,0-1.51,0-3,0-4.55s-.14-2.85-.14-4.28c-.1-4-.19-8-1.46-11.86a12.08,12.08,0,0,0-5.17-7.63,15.73,15.73,0,0,0-8.4-3.21c-1.29-.14-2.68-.06-4-.07s-2.86,0-4.29.07-2.71.27-4.06.27a49.55,49.55,0,0,1-5.45.2,33.83,33.83,0,0,1-5.31-.68,10.76,10.76,0,0,1-5.54-2.73,11,11,0,0,1-3.06-5.12q-.17-.6-.27-1.2t-.18-1.38a47.94,47.94,0,0,1-.07-6.67c.06-1.24.12-2.48.2-3.72.15-2.51.31-5,.46-7.54a33.07,33.07,0,0,0,0-7.24c-.37-2.32-1.17-4.95-3.3-6.22a18.6,18.6,0,0,0-4.24-1.5c-1.57-.48-3.16-.81-4.75-1.24s-4.56-1.15-5.51-2.72c-1.08-1.8.68-3.65,1.7-5,1.52-2,3.12-3.94,4.74-5.86.34-.41.69-.81,1-1.21.46-.55.93-1.1,1.4-1.64q1.89-2.21,3.84-4.38s6.14-6.42,6.44-12.56l.59-13.74c0-1.74,0-3.48,0-5.21.06-4.39.08-8.8.53-13.17a72,72,0,0,1,1.33-8.08c.35-1.64.76-3.26,1.19-4.86.37-1.38.79-2.74,1.26-4.09a61.33,61.33,0,0,1,3.3-7.75,58.6,58.6,0,0,1,3.81-6.49l.15-.19.16-.21c.52-.67,1.64-2.11,3.07-3.89l.78-1,.3-.37.63-.76c.62-.75,1.27-1.52,1.93-2.3,0,0,0,0,.06-.06.45-.53.92-1.06,1.38-1.59,1.17-1.32,2.33-2.6,3.44-3.71.33-.33.66-.65,1-1a6.85,6.85,0,0,1,.62-.58l.14-.13h0a10.07,10.07,0,0,1,2.87-2v25.62a9,9,0,0,0,8.51,7.62l53.51.13c.35,0,.7-.08,1.08-.14l.42-.09a1.43,1.43,0,0,0,.28-.07l.42-.12a4.43,4.43,0,0,0,.87-.36,3,3,0,0,0,.81-.6c-.07.11,0,.24.09.33a3.87,3.87,0,0,0,3.41,1,1.15,1.15,0,0,0,.48-.13,6.8,6.8,0,0,0,0,1.69v48.23A1.14,1.14,0,0,1,283.2,282.37Z" fill="none" stroke="#6d6da9" stroke-miterlimit="10"/><path d="M213.17,256.27a3.3,3.3,0,0,0-.52-.13,14.32,14.32,0,0,0-3.49-.42,15.1,15.1,0,1,0,4,.55Zm-4,21.21a6.69,6.69,0,1,1,0-13.37,6.56,6.56,0,0,1,4.55,1.81s0,0,0,0a6.57,6.57,0,0,1,2.12,4.86,6.68,6.68,0,0,1-6.68,6.69Z" fill="none" stroke="#6d6da9" stroke-miterlimit="10"/><path d="M280.23,143.47a4.62,4.62,0,0,1,1,.49A3.87,3.87,0,0,0,280.23,143.47Z" fill="none" stroke="#6d6da9" stroke-miterlimit="10"/><path d="M282.89,145.75a4.65,4.65,0,0,0-1.63-1.79,4,4,0,0,0-1-.49.83.83,0,0,0-.18-.05l-.14,0-.12,0H253.07" fill="none" stroke="#6d6da9" stroke-miterlimit="10"/><path d="M213.17,256.27a3.3,3.3,0,0,0-.52-.13,14.32,14.32,0,0,0-3.49-.42,15.1,15.1,0,1,0,4,.55Zm-4,21.21a6.69,6.69,0,1,1,0-13.37,6.56,6.56,0,0,1,4.55,1.81s0,0,0,0a6.57,6.57,0,0,1,2.12,4.86,6.68,6.68,0,0,1-6.68,6.69Z" fill="none" stroke="#6d6da9" stroke-miterlimit="10"/><path d="M282.89,145.75a4.25,4.25,0,0,1,.31.68V213a4.35,4.35,0,0,1-.3.6,4.64,4.64,0,0,1-3.13,2.32,3.81,3.81,0,0,1-.86.11c-3.27.1-49.16,0-49.16,0s-3.85,0-3.66-4.74V147a4,4,0,0,1,3.66-3.66h23.33" fill="none" stroke="#6d6da9" stroke-miterlimit="10"/><path d="M213.17,256.27a3.3,3.3,0,0,0-.52-.13,14.32,14.32,0,0,0-3.49-.42,15.1,15.1,0,1,0,4,.55Zm-4,21.21a6.69,6.69,0,1,1,0-13.37,6.56,6.56,0,0,1,4.55,1.81s0,0,0,0a6.57,6.57,0,0,1,2.12,4.86,6.68,6.68,0,0,1-6.68,6.69Z" fill="none" stroke="#6d6da9" stroke-miterlimit="10"/></svg>